<?xml version="1.0" encoding="UTF-8"?>
<svg id="Layer_2" data-name="Layer 2" xmlns="http://www.w3.org/2000/svg" viewBox="0 0 200 199.64">
  <defs>
    <style>
      .cls-1 {
        fill: #68c5ae;
        stroke-width: 0px;
      }
    </style>
  </defs>
  <g id="_ÎÓÈ_1" data-name="—ÎÓÈ_1">
    <g>
      <path class="cls-1" d="M199.56,110.34l.44-15.22-16.55-2c-.2-2.52-.51-5.01-.93-7.46l15.53-6.03-4.2-14.64-16.36,3.12c-.95-2.33-2.01-4.61-3.16-6.82l12.96-10.45-8.44-12.68-14.66,7.94c-1.61-1.92-3.3-3.77-5.07-5.54l9.19-13.91-11.89-9.52-11.55,12.01c-2.44-1.55-4.97-2.98-7.58-4.28l4.3-16.09-14.3-5.26-7.14,15.04c-3.59-.89-7.27-1.54-11.02-1.95l-1.52-16.6h-15.23l-1.52,16.6c-2.51.27-4.99.65-7.43,1.14l-6.48-15.34-14.51,4.62,3.59,16.26c-2.3,1.02-4.54,2.14-6.73,3.36l-10.83-12.66-12.43,8.81,8.37,14.42c-1.87,1.66-3.67,3.41-5.39,5.23l-14.17-8.78-9.17,12.16,12.34,11.19c-1.28,2.15-2.47,4.36-3.56,6.62l-16.15-4.06-5.04,14.37,15.14,6.92c-.56,2.43-1.01,4.89-1.36,7.4l-16.63,1.03-.44,15.22,16.55,2c.2,2.52.51,5.01.93,7.46l-15.53,6.03,4.2,14.64,16.36-3.12c.95,2.33,2.01,4.61,3.16,6.82l-12.96,10.45,8.44,12.68,14.66-7.94c1.61,1.92,3.3,3.77,5.07,5.54l-9.19,13.91,11.89,9.52,11.55-12.01c2.44,1.55,4.97,2.98,7.58,4.28l-4.3,16.09,14.3,5.26,7.14-15.04c3.59.89,7.27,1.54,11.02,1.95l1.52,16.6h15.23l1.52-16.6c2.51-.27,4.99-.65,7.43-1.14l6.48,15.34,14.51-4.62-3.59-16.26c2.3-1.02,4.54-2.14,6.73-3.36l10.83,12.66,12.43-8.81-8.37-14.42c1.87-1.66,3.67-3.41,5.39-5.23l14.17,8.78,9.17-12.16-12.34-11.19c1.28-2.15,2.47-4.36,3.56-6.62l16.15,4.06,5.04-14.37-15.14-6.92c.56-2.43,1.01-4.89,1.36-7.4l16.63-1.03ZM100,167.17c-37.2,0-67.35-30.15-67.35-67.35S62.8,32.47,100,32.47s67.35,30.15,67.35,67.35-30.15,67.35-67.35,67.35Z"/>
      <path class="cls-1" d="M100,80.16c-10.86,0-19.66,8.8-19.66,19.66s8.8,19.66,19.66,19.66,19.66-8.8,19.66-19.66-8.8-19.66-19.66-19.66ZM100,111.39c-6.39,0-11.57-5.18-11.57-11.57s5.18-11.57,11.57-11.57,11.57,5.18,11.57,11.57-5.18,11.57-11.57,11.57Z"/>
      <g>
        <rect class="cls-1" x="93.28" y="24.52" width="13.43" height="62.35"/>
        <rect class="cls-1" x="93.28" y="111.65" width="13.43" height="62.35"/>
      </g>
      <g>
        <rect class="cls-1" x="55.55" y="46.3" width="13.43" height="62.35" transform="translate(-35.96 92.67) rotate(-60)"/>
        <rect class="cls-1" x="131.01" y="89.87" width="13.43" height="62.35" transform="translate(-35.96 179.8) rotate(-60)"/>
      </g>
      <g>
        <rect class="cls-1" x="31.09" y="114.33" width="62.35" height="13.43" transform="translate(-52.18 47.35) rotate(-30)"/>
        <rect class="cls-1" x="106.56" y="70.76" width="62.35" height="13.43" transform="translate(-20.29 79.25) rotate(-30)"/>
      </g>
    </g>
  </g>
</svg>