<?xml version="1.0" encoding="UTF-8"?>
<svg id="Layer_2" data-name="Layer 2" xmlns="http://www.w3.org/2000/svg" viewBox="0 0 190.66 190.32">
  <defs>
    <style>
      .cls-1 {
        fill: #68c5ae;
        stroke-width: 0px;
      }
    </style>
  </defs>
  <g id="_ÎÓÈ_1" data-name="—ÎÓÈ_1">
    <g>
      <path class="cls-1" d="M190.24,105.19l.42-14.51-15.77-1.9c-.19-2.4-.49-4.77-.89-7.11l14.8-5.75-4-13.96-15.59,2.97c-.91-2.22-1.91-4.39-3.01-6.51l12.36-9.97-8.05-12.08-13.97,7.57c-1.53-1.83-3.15-3.6-4.84-5.28l8.76-13.26-11.34-9.07-11.01,11.45c-2.33-1.48-4.74-2.84-7.23-4.08l4.1-15.34-13.63-5.01-6.81,14.34c-3.42-.85-6.93-1.47-10.51-1.86l-1.44-15.82h-14.52l-1.44,15.82c-2.39.26-4.76.62-7.08,1.09l-6.17-14.63-13.84,4.41,3.42,15.5c-2.19.97-4.33,2.04-6.41,3.2l-10.32-12.07-11.85,8.4,7.97,13.75c-1.79,1.59-3.5,3.25-5.14,4.99l-13.51-8.37-8.74,11.6,11.76,10.67c-1.22,2.05-2.36,4.15-3.39,6.32l-15.39-3.87-4.81,13.7,14.44,6.59c-.53,2.31-.96,4.67-1.29,7.05l-15.85.98-.42,14.51,15.77,1.9c.19,2.4.49,4.77.89,7.11l-14.8,5.75,4,13.96,15.59-2.97c.91,2.22,1.91,4.39,3.01,6.51l-12.36,9.97,8.05,12.08,13.97-7.57c1.53,1.83,3.15,3.6,4.84,5.28l-8.76,13.26,11.34,9.07,11.01-11.45c2.33,1.48,4.74,2.84,7.23,4.08l-4.1,15.34,13.63,5.01,6.81-14.34c3.42.85,6.93,1.47,10.51,1.86l1.44,15.82h14.52l1.44-15.82c2.39-.26,4.76-.62,7.08-1.09l6.17,14.63,13.83-4.41-3.42-15.5c2.19-.97,4.33-2.04,6.41-3.2l10.32,12.07,11.85-8.4-7.97-13.75c1.79-1.59,3.5-3.25,5.14-4.99l13.51,8.37,8.74-11.6-11.76-10.67c1.22-2.05,2.36-4.15,3.39-6.32l15.39,3.87,4.81-13.7-14.44-6.59c.53-2.31.96-4.67,1.29-7.05l15.85-.98ZM95.33,153.35c-32.14,0-58.19-26.05-58.19-58.19s26.05-58.19,58.19-58.19,58.19,26.05,58.19,58.19-26.05,58.19-58.19,58.19Z"/>
      <path class="cls-1" d="M95.33,44.82c-27.8,0-50.34,22.54-50.34,50.34s22.54,50.34,50.34,50.34,50.34-22.54,50.34-50.34-22.54-50.34-50.34-50.34ZM95.33,120.45c-13.97,0-25.29-11.32-25.29-25.29s11.32-25.29,25.29-25.29,25.29,11.32,25.29,25.29-11.32,25.29-25.29,25.29Z"/>
    </g>
  </g>
</svg>