<?xml version="1.0" encoding="UTF-8"?>
<svg id="Layer_2" data-name="Layer 2" xmlns="http://www.w3.org/2000/svg" viewBox="0 0 128.85 128.34">
  <defs>
    <style>
      .cls-1 {
        fill: #68c5ae;
        stroke-width: 0px;
      }
    </style>
  </defs>
  <g id="_ÎÓÈ_1" data-name="—ÎÓÈ_1">
    <path class="cls-1" d="M126.38,84.52c1.09-3.32,1.92-6.75,2.47-10.28l-12-3.65-.37-15.34,11.82-4.23c-.72-3.49-1.71-6.89-2.97-10.15l-12.23,2.8-7.94-13.12,8.14-9.53c-2.34-2.65-4.89-5.1-7.62-7.34l-9.21,8.5-13.42-7.44,2.33-12.34c-3.02-1.02-6.14-1.83-9.34-2.41l-3.94,11.91h-15.34L52.81,0c-4.09.73-8.04,1.85-11.83,3.31l2.83,12.23-13.1,7.97-9.55-8.12c-2.76,2.45-5.31,5.13-7.62,8.01l8.59,9.13-7.31,13.49-12.35-2.21c-1.09,3.32-1.92,6.75-2.47,10.28l12,3.65.37,15.34-11.82,4.23c.72,3.49,1.71,6.89,2.97,10.15l12.23-2.8,7.94,13.12-8.14,9.53c2.34,2.65,4.89,5.1,7.62,7.34l9.21-8.5,13.42,7.44-2.33,12.34c3.02,1.02,6.14,1.83,9.34,2.41l3.94-11.91h15.34l3.94,11.91c4.09-.73,8.04-1.85,11.83-3.31l-2.83-12.23,13.1-7.97,9.55,8.12c2.76-2.45,5.31-5.13,7.62-8.01l-8.59-9.13,7.31-13.49,12.35,2.21ZM64.43,107.31c-23.83,0-43.15-19.32-43.15-43.15s19.32-43.15,43.15-43.15,43.15,19.32,43.15,43.15-19.32,43.15-43.15,43.15Z"/>
  </g>
</svg>